<svg xmlns="http://www.w3.org/2000/svg" viewBox="0 0 12.72 12.72"><defs><style>.cls-1{fill:#7c7c7c;}.cls-2{fill:none;}</style></defs><g id="Calque_2" data-name="Calque 2"><g id="Calque_1-2" data-name="Calque 1"><g id="Calque_2-2" data-name="Calque 2"><g id="Calque_1-2-2" data-name="Calque 1-2"><path class="cls-1" d="M1.56,4.67h1.2v1.2H1.56ZM4,2.27h1.2v7.2H4Zm2.4,8.4H5.16V9.47h1.2Zm0-6h1.2v1.2H6.36Zm2.4,6H7.56V9.47h1.2Zm0-6H10v1.2H8.76Zm2.39,6H10V9.47h1.19Z"/></g></g><g id="Calque_2-3" data-name="Calque 2"><g id="Calque_1-2-3" data-name="Calque 1-2"><path d="M1.56,5.87h1.2v1.2H1.56ZM4,3.47h1.2v7.2H4Zm2.4,8.4H5.16v-1.2h1.2Zm0-6h1.2v1.2H6.36Zm2.4,6H7.56v-1.2h1.2Zm0-6H10v1.2H8.76Zm2.39,6H10v-1.2h1.19Z"/></g></g><rect class="cls-2" width="12.72" height="12.72"/></g></g></svg>