<svg xmlns="http://www.w3.org/2000/svg" viewBox="0 0 88.79 8.4"><defs><style>.cls-1{fill:#d3d3d3;}</style></defs><g id="Calque_2" data-name="Calque 2"><g id="Calque_1-2" data-name="Calque 1"><path class="cls-1" d="M0,2.4H1.2V3.6H0ZM2.4,0H3.6V7.2H2.4ZM4.8,8.4H3.6V7.2H4.8Zm0-6H6V3.6H4.8Zm2.4,6H6V7.2H7.2Zm0-6H8.4V3.6H7.2Zm2.39,6H8.4V7.2H9.59Z"/><path class="cls-1" d="M15.6,2.4h1.2V3.6H15.6Zm0,4.8h1.2V8.4H15.6ZM18,0h1.2V1.2H18Zm0,2.4h1.2v6H18Zm2.4,4.8h1.2V8.4H20.4Z"/><path class="cls-1" d="M30,8.4V6h1.2V8.4ZM33.6,6V8.4H32.4V6Z"/><path class="cls-1" d="M39.6,3.6h1.2V7.2H39.6Zm2.4,0H40.8V2.4H42Zm0,4.8H40.8V7.2H42Zm2.4-4.8H43.2V2.4h1.2Zm0,4.8H43.2V7.2h1.2Zm2.4-4.8H45.6V2.4h1.2Zm0,4.8H45.6V7.2h1.2Zm2.39-4.8H48V2.4h1.19Zm0,4.8H48V7.2h1.19Z"/><path class="cls-1" d="M52.8,0H54V8.4H52.8Zm2.4,2.4h1.2V3.6H55.2Zm2.4,0h1.2V3.6H57.6Zm2.4,0h1.19V3.6H60Zm1.19,6V3.6h1.2V8.4Z"/><path class="cls-1" d="M66,6h1.2V7.2H66Zm1.2,0V4.8h1.2V6Zm1.2,2.4H67.2V7.2h1.2Zm0-6h1.2V3.6H68.4ZM69.6,6V4.8h1.2V6Zm1.2,2.4H69.6V7.2h1.2Zm0-6H72V3.6H70.8ZM72,6V4.8h1.2V6Zm1.2,2.4H72V7.2h1.2Zm0-6h1.2V3.6H73.2Zm1.2,4.8V3.6h1.19V7.2Zm2.39,1.2h-1.2V7.2h1.2Z"/><path class="cls-1" d="M79.2,2.4h1.2V3.6H79.2ZM81.6,0h1.2V7.2H81.6ZM84,8.4H82.8V7.2H84Zm0-6h1.2V3.6H84Zm2.4,6H85.2V7.2h1.2Zm0-6h1.19V3.6H86.4Zm2.39,6h-1.2V7.2h1.2Z"/></g></g></svg>